<svg xmlns="http://www.w3.org/2000/svg" viewBox="0 0 180 180"><defs><style>.cls-1{fill:#1c1b35;}.cls-2{fill:#fff;}</style></defs><g id="Capa_2" data-name="Capa 2"><g id="Capa_1-2" data-name="Capa 1"><circle class="cls-1" cx="90" cy="90" r="90"/><path class="cls-2" d="M74.3,142.64l-3-19.11a1.47,1.47,0,0,0-1.46-1.23H56.34a1.47,1.47,0,0,0-1.46,1.21l-3.19,19.14a1.47,1.47,0,0,1-1.46,1.21H38.31a1.44,1.44,0,0,1-1.45-1.67l18-106.53a1.47,1.47,0,0,1,1.46-1.21H73.22a1.47,1.47,0,0,1,1.46,1.21L93,142.19a1.45,1.45,0,0,1-1.46,1.67H75.76A1.46,1.46,0,0,1,74.3,142.64ZM59.92,98.42h6.25a1.46,1.46,0,0,0,1.46-1.66L64.5,76.26a1.48,1.48,0,0,0-2.92,0l-3.13,20.5A1.46,1.46,0,0,0,59.92,98.42Z"/><path class="cls-2" d="M128.28,114.79l13.37,1.64a1.45,1.45,0,0,1,1.28,1.62,43.49,43.49,0,0,1-7.2,19,18.64,18.64,0,0,1-16.06,8.46q-11.28,0-18-11.91T95,104.11q0-18.28,6.62-30.86t17.67-12.59q10.7,0,17.3,11.87t6.59,32.3c0,.83,0,1.91,0,3.22a1.47,1.47,0,0,1-1.48,1.43H114.77a1.47,1.47,0,0,0-1.48,1.49,32.89,32.89,0,0,0,1.46,9.93,5.29,5.29,0,0,0,5.35,3.73q5.3,0,6.54-8.62A1.47,1.47,0,0,1,128.28,114.79Zm-4.15-21.34A1.46,1.46,0,0,0,125.6,92q-.18-7-1.79-9.61Q122,79.5,119.42,79.5q-5.86,0-6.18,12.46a1.47,1.47,0,0,0,1.48,1.49Z"/></g></g></svg>