<svg xmlns="http://www.w3.org/2000/svg" viewBox="0 0 180 180"><defs><style>.cls-1{fill:#1c1b35;}.cls-2{fill:#fff;}</style></defs><g id="Capa_2" data-name="Capa 2"><g id="Capa_1-2" data-name="Capa 1"><circle class="cls-1" cx="90" cy="90" r="90"/><path class="cls-2" d="M56.1,142.93V37.07a3.75,3.75,0,0,1,3.75-3.75H97.21q12.81,0,18.68,9a37.14,37.14,0,0,1,5.88,20.68,33.79,33.79,0,0,1-3.42,15.32,19.39,19.39,0,0,1-4.81,6.29,3.75,3.75,0,0,0,.41,6q9.94,6.8,10,23.58a45.43,45.43,0,0,1-5.55,22.55q-5.53,9.92-23.69,9.92H59.85A3.75,3.75,0,0,1,56.1,142.93ZM79,73a3.75,3.75,0,0,0,3.75,3.75H90.5q4.34,0,6.11-3.08a12.81,12.81,0,0,0,1.78-6.56q0-9.47-8.3-9.47H82.75A3.75,3.75,0,0,0,79,61.4Zm0,44.67a3.74,3.74,0,0,0,3.75,3.75H91.1c3,0,5.21-1,6.61-3.11a12.3,12.3,0,0,0,2.11-7,13.27,13.27,0,0,0-2-7.18q-2-3.28-7.5-3.28H82.75A3.75,3.75,0,0,0,79,104.59Z"/></g></g></svg>