<svg xmlns="http://www.w3.org/2000/svg" viewBox="0 0 180 180"><defs><style>.cls-1{fill:#1c1b35;}.cls-2{fill:#fff;}</style></defs><g id="Capa_2" data-name="Capa 2"><g id="Capa_1-2" data-name="Capa 1"><circle class="cls-1" cx="90" cy="90" r="90"/><path class="cls-2" d="M90,157.68a4.43,4.43,0,0,1-.81-.07l-35.82-6.33A4.84,4.84,0,0,1,49.42,147L36.2,37.89a5,5,0,0,1,1.22-4A4.73,4.73,0,0,1,41,32.32h98.1a4.73,4.73,0,0,1,3.53,1.61,5,5,0,0,1,1.22,4L130.58,147a4.84,4.84,0,0,1-3.94,4.26l-35.83,6.33A4.43,4.43,0,0,1,90,157.68Zm.06-5Zm-35.68-6.3L90,152.67l35.62-6.29L138.84,37.32H41.18Z"/><path class="cls-2" d="M124.07,57.39H55.93a1.79,1.79,0,0,0-1.78,2l1.11,9.14A1.79,1.79,0,0,0,57,70.12h53.2a1.81,1.81,0,0,1,1.79,2l-.82,6.63a1.8,1.8,0,0,1-1.79,1.57l-50.7,0a1.81,1.81,0,0,0-1.79,2l1,8.18a1.79,1.79,0,0,0,1.78,1.58h48a1.79,1.79,0,0,1,1.78,2l-3.67,21.73a1.8,1.8,0,0,1-1.25,1.48l-15.16,3a1.9,1.9,0,0,1-1,0l-14.65-3.46a1.78,1.78,0,0,1-1.3-1.63l0-7.55a1.8,1.8,0,0,0-1.8-1.7l-8.84.12a1.81,1.81,0,0,0-1.78,2l2.44,18.49A1.78,1.78,0,0,0,64,128.22l25.7,4.37a2,2,0,0,0,.6,0l25.7-4.37a1.81,1.81,0,0,0,1.48-1.55l8.37-67.26A1.8,1.8,0,0,0,124.07,57.39Z"/></g></g></svg>