<svg xmlns="http://www.w3.org/2000/svg" viewBox="0 0 180 180"><defs><style>.cls-1{fill:#1c1b35;}.cls-2{fill:#fff;}</style></defs><g id="Capa_2" data-name="Capa 2"><g id="Capa_1-2" data-name="Capa 1"><circle class="cls-1" cx="90" cy="90" r="90"/><path class="cls-2" d="M86.64,120.72v22.35a2,2,0,0,1-2,2H44.28a2,2,0,0,1-2-2V36.93a2,2,0,0,1,2-2H84.67a2,2,0,0,1,2,2V58.4a2,2,0,0,1-2,2H62a2,2,0,0,0-2,2v12a2,2,0,0,0,2,2H79.58a2,2,0,0,1,2,2V98.8a2,2,0,0,1-2,2H62a2,2,0,0,0-2,2v14a2,2,0,0,0,2,2H84.67A2,2,0,0,1,86.64,120.72Z"/><path class="cls-2" d="M136.62,145H119.51a1.07,1.07,0,0,1-1-.75L111.65,122a1.06,1.06,0,0,0-2,0l-7.33,22.29a1.07,1.07,0,0,1-1,.73H89.57a1.07,1.07,0,0,1-1-1.42l14.79-41.71a1.08,1.08,0,0,0,0-.71L90.46,64.44a1.06,1.06,0,0,1,1-1.42H108.3a1.06,1.06,0,0,1,1,.77l4.31,14.53c.2.7.44,1.5.73,2.41.14.43.35,1.13.61,2.09.31-.91.7-2.14,1.16-3.7.06-.27.22-.83.48-1.69l4.26-13.66a1.07,1.07,0,0,1,1-.75h11.93a1.07,1.07,0,0,1,1,1.42L122.58,100a1.05,1.05,0,0,0,0,.7l15,42.93A1.07,1.07,0,0,1,136.62,145Z"/></g></g></svg>