<svg xmlns="http://www.w3.org/2000/svg" viewBox="0 0 180 180"><defs><style>.cls-1{fill:#1c1b35;}.cls-2{fill:#fff;}</style></defs><g id="Capa_2" data-name="Capa 2"><g id="Capa_1-2" data-name="Capa 1"><path class="cls-1" d="M90,0a90,90,0,1,0,90,90A90,90,0,0,0,90,0Z"/><path class="cls-2" d="M107.1,94.25v13.56a2.76,2.76,0,0,0,2.7,2.81H127a2.75,2.75,0,0,1,2.7,2.8v18.27a2.75,2.75,0,0,1-2.7,2.8H109.8a2.76,2.76,0,0,0-2.7,2.81v40.47a3,3,0,0,1-.06.61,90.48,90.48,0,0,1-32.9.22,2.82,2.82,0,0,1-.12-.83v-40.3a3,3,0,0,0-3-3H53.31a3,3,0,0,1-3-3V113.47a3,3,0,0,1,3-3H71.05a3,3,0,0,0,3-3v-9q0-23.16,13.76-38.33C97,50.07,108.5,47.5,122.42,47.5l4.55,0a2.76,2.76,0,0,1,2.69,2.81V78.82a2.76,2.76,0,0,1-2.7,2.81h-6.31C114.81,81.64,107.1,85.84,107.1,94.25Z"/></g></g></svg>