<svg xmlns="http://www.w3.org/2000/svg" viewBox="0 0 180 180"><defs><style></style></defs><g id="Capa_2" data-name="Capa 2"><g id="Capa_1-2" data-name="Capa 1"><path class="cls-1" d="M90,0a90,90,0,1,0,90,90A90,90,0,0,0,90,0Z"/><path class="cls-2" d="M83.4,153a83,83,0,0,1-14.78-1.32l-1.51-.27L66.67,150a5.21,5.21,0,0,1-.22-1.49v-36.8a.19.19,0,0,0-.18-.21H54.69a3.83,3.83,0,0,1-3.82-4L52,88.13a3.83,3.83,0,0,1,3.82-3.6H66.27a.19.19,0,0,0,.18-.21V76.08c0-14.67,4.4-27,13.08-36.67C89.35,28.47,101.81,27,112.71,27h2.62a3.83,3.83,0,0,1,3.8,4l-1.68,28.51a3.83,3.83,0,0,1-3.81,3.6h-2.53c-3.93,0-9.75,2.86-9.75,9V84.58l10.56.06a3.83,3.83,0,0,1,3.82,4l-1.12,19.15a3.83,3.83,0,0,1-3.82,3.6h-9.5l.06,37a5.32,5.32,0,0,1-.11,1.07l-.34,1.63-1.62.31A82.38,82.38,0,0,1,83.4,153Zm-12-5.91a79.42,79.42,0,0,0,24.91-.16V111.51a5,5,0,0,1,4.94-5.07h8.39l1-16.8H101.3a5,5,0,0,1-4.94-5.06V72.19c0-8.65,7.66-14,14.75-14h1.41L114.06,32h-1.35c-14.07,0-22.6,3.11-29.46,10.75-7.83,8.72-11.8,19.93-11.8,33.33v8.24a5.2,5.2,0,0,1-5.18,5.21H56.93l-1,16.92H66.27a5.2,5.2,0,0,1,5.18,5.21Z"/></g></g></svg>