<svg xmlns="http://www.w3.org/2000/svg" viewBox="0 0 180.66 180"><defs><style>.cls-1{fill:#fff;}.cls-2{fill:#1c1b35;}</style></defs><g id="Capa_2" data-name="Capa 2"><g id="Capa_1-2" data-name="Capa 1"><path class="cls-1" d="M112.45,171.24c0-2.93.11-12.62.11-24.68,0-8.45-2.93-14-6.09-16.68,20.1-2.21,41.21-9.83,41.21-44.46a34.87,34.87,0,0,0-9.26-24.18c.9-2.27,4-11.44-.9-23.85,0,0-7.57-2.42-24.73,9.24a85.38,85.38,0,0,0-45.16,0C50.35,35,42.79,37.39,42.79,37.39,37.93,49.8,41,59,42,61.24a34.72,34.72,0,0,0-9.3,24.18C32.7,120,53.78,127.71,73.84,130c-2.58,2.25-4.9,6.22-5.72,12-5.16,2.3-18.25,6.29-26.31-7.49,0,0-4.76-8.66-13.83-9.29,0,0-8.82-.12-.63,5.47,0,0,5.94,2.78,10,13.19,0,0,5.3,17.52,30.42,12.09,0,7.51.11,13.18.11,15.32s-1.37,4.67-5,4.47a90.44,90.44,0,0,0,55.17-.16C113.91,176.17,112.45,173.5,112.45,171.24Z"/><path class="cls-1" d="M90.26,0A90.15,90.15,0,0,0,67.7,2.85,90.45,90.45,0,0,1,90.29,0Z"/><path class="cls-2" d="M.26,90A90,90,0,0,1,67.7,2.85a90.09,90.09,0,0,0-5.94,172.78,8.68,8.68,0,0,0,1.16.14A90,90,0,0,1,.26,90Z"/><path class="cls-2" d="M90.33,0h0a90,90,0,0,1,27.8,175.61l.57-.09A90,90,0,0,0,90.33,0Z"/><path class="cls-2" d="M180.26,90A90,90,0,1,0,62.92,175.77c3.64.2,5-2.3,5-4.47s-.07-7.81-.11-15.32C42.7,161.41,37.4,143.89,37.4,143.89c-4.11-10.41-10-13.19-10-13.19-8.19-5.59.63-5.47.63-5.47,9.07.63,13.83,9.29,13.83,9.29C49.87,148.3,63,144.31,68.12,142c.82-5.83,3.14-9.8,5.72-12C53.78,127.71,32.7,120,32.7,85.42A34.72,34.72,0,0,1,42,61.24c-1-2.27-4.07-11.44.79-23.85,0,0,7.56-2.42,24.84,9.24a85.38,85.38,0,0,1,45.16,0C130,35,137.52,37.39,137.52,37.39c4.85,12.41,1.8,21.58.9,23.85a34.87,34.87,0,0,1,9.26,24.18c0,34.63-21.11,42.25-41.21,44.46,3.16,2.71,6.09,8.23,6.09,16.68,0,12.06-.11,21.75-.11,24.68,0,2.26,1.46,4.93,5.64,4.37A90.05,90.05,0,0,0,180.26,90Z"/></g></g></svg>