<svg xmlns="http://www.w3.org/2000/svg" viewBox="0 0 180 180"><defs><style>.cls-1{fill:#1c1b35;}.cls-2{fill:#fff;}</style></defs><g id="Capa_2" data-name="Capa 2"><g id="Capa_1-2" data-name="Capa 1"><path class="cls-1" d="M90,0a90,90,0,1,0,90,90A90,90,0,0,0,90,0Z"/><path class="cls-2" d="M94.47,152.41a89.36,89.36,0,0,1-14.64-1.21c-2.63-.44-5.33-1-8-1.75A3,3,0,0,1,69.62,147,3,3,0,0,1,71,144a1.18,1.18,0,0,0,.49-1c0-.8,0-2.19,0-4,0-1.64,0-3.63,0-5.9a40.73,40.73,0,0,1-5.61.41c-16.13,0-20.93-11.06-21.53-12.61-3.19-7.57-7.55-9.68-7.73-9.77l-.32-.17c-1.5-1-5-3.23-4.13-6.24.79-2.64,4.13-3,6.08-3h.13c9.36.61,14.21,8.71,14.41,9,5.52,8.86,14.14,7.57,19.23,5.75a20.24,20.24,0,0,1,2.48-6.42c-15.82-2.43-34.54-9.9-34.54-39.39A30.49,30.49,0,0,1,47.82,49.8c-1.08-3.14-2.58-10.12.78-19.17a4.62,4.62,0,0,1,4.22-3c3-.08,9.78.75,20.71,7.39a1.89,1.89,0,0,0,1.37.19,83.84,83.84,0,0,1,38.16,0,1.84,1.84,0,0,0,1.37-.2c10.86-6.63,17.58-7.47,20.62-7.38a4.62,4.62,0,0,1,4.21,3c3.23,8.68,2,15.5.86,19.14a30.65,30.65,0,0,1,7.93,20.94c0,29.48-18.74,36.92-34.58,39.33a22.73,22.73,0,0,1,3.07,12.14c0,6.81-.05,12.72-.08,16.62,0,1.92,0,3.34,0,4.15A1.09,1.09,0,0,0,117,144a3,3,0,0,1-.48,5.59c-2.14.55-4.27,1-6.34,1.4A88.15,88.15,0,0,1,94.47,152.41Zm-18.41-7q2.32.52,4.59.9a84.32,84.32,0,0,0,28.66-.17c.88-.16,1.77-.34,2.67-.53a6.48,6.48,0,0,1-.54-2.61c0-.81,0-2.25,0-4.18,0-3.9.08-9.8.08-16.59,0-7.08-2.83-10.52-4.05-11.67a2.88,2.88,0,0,1,1.66-5c16.76-1.87,33.9-7.47,33.9-34.85a25.81,25.81,0,0,0-7.07-18,3.85,3.85,0,0,1-.8-3.92c.81-2.22,2.36-8.22-.53-16.15h0c-2.22,0-7.89.74-17.61,6.66a6.79,6.79,0,0,1-5.11.8,78.77,78.77,0,0,0-35.88,0,6.82,6.82,0,0,1-5.1-.79c-9.81-5.95-15.52-6.64-17.73-6.67-3,8.3-1.13,14.41-.48,16.09a3.79,3.79,0,0,1-.78,4,25.72,25.72,0,0,0-7.06,18c0,27.53,18.08,33.12,33.84,34.91a2.88,2.88,0,0,1,1.67,4.94,13.39,13.39,0,0,0-3.67,7.6,3.65,3.65,0,0,1-2.24,2.75c-5.16,2-18,5.32-26-7.55-.06-.11-3.33-5.47-9.23-6.5,1.68,1,6.37,4.2,9.69,12.09l.08.21c.17.49,4.5,12.54,24.42,8.49l3-.6,0,3c0,3.5,0,6.52.07,8.83,0,1.87,0,3.28,0,4.09A6.37,6.37,0,0,1,76.06,145.36Zm63.82-94.91Z"/></g></g></svg>