<svg xmlns="http://www.w3.org/2000/svg" viewBox="0 0 180 180"><defs><style>.cls-1{fill:#1c1b35;}.cls-2{fill:#fff;}</style></defs><g id="Capa_2" data-name="Capa 2"><g id="Capa_1-2" data-name="Capa 1"><path class="cls-1" d="M90,0a90,90,0,1,0,90,90A90,90,0,0,0,90,0Z"/><path class="cls-2" d="M142,48.5H38c-4.4,0-8,3.31-8,7.38v68.24c0,4.07,3.58,7.38,8,7.38H142c4.4,0,8-3.31,8-7.38V55.88C150,51.81,146.42,48.5,142,48.5Zm-1.9,4.37L95,82a12.35,12.35,0,0,1-13.62-.2L39.48,52.87Zm5.16,71.25a3.15,3.15,0,0,1-3.26,3H38a3.15,3.15,0,0,1-3.26-3V55.88a2.74,2.74,0,0,1,.12-.76L78.59,85.29a17.41,17.41,0,0,0,19.16.27L145.11,55a2.66,2.66,0,0,1,.17.9Z"/></g></g></svg>