<svg xmlns="http://www.w3.org/2000/svg" viewBox="0 0 180 180"><defs><style>.cls-1{fill:#1c1b35;}.cls-2{fill:#fff;}</style></defs><g id="Capa_2" data-name="Capa 2"><g id="Capa_1-2" data-name="Capa 1"><circle class="cls-1" cx="90" cy="90" r="90"/><path class="cls-2" d="M90,156.79a4.43,4.43,0,0,1-.81-.07L53.3,150.38a4.86,4.86,0,0,1-3.95-4.27L36.1,36.78a5,5,0,0,1,1.23-4,4.73,4.73,0,0,1,3.53-1.61h98.28a4.73,4.73,0,0,1,3.53,1.61,5,5,0,0,1,1.23,4L130.65,146.11a4.86,4.86,0,0,1-4,4.27l-35.89,6.34A4.43,4.43,0,0,1,90,156.79Zm.06-5Zm-35.75-6.31L90,151.78l35.69-6.3L138.93,36.21H41.08Z"/><path class="cls-2" d="M56.46,56h67.08a1.76,1.76,0,0,1,1.66,2l-1.12,11a1.73,1.73,0,0,1-1.66,1.61H73.71a1.76,1.76,0,0,0-1.65,2L73,80.09a1.72,1.72,0,0,0,1.66,1.57h45.89a1.75,1.75,0,0,1,1.66,2l-4.58,41.71a1.75,1.75,0,0,1-1.37,1.56l-25.92,5a1.47,1.47,0,0,1-.69,0l-25.29-6.58a1.77,1.77,0,0,1-1.26-1.5l-2.44-18.15a1.78,1.78,0,0,1,1.66-2.07h12a1.72,1.72,0,0,1,1.66,1.57l1.19,10a1.74,1.74,0,0,0,1.33,1.54l11.23,2.45a1.67,1.67,0,0,0,.59,0l14.81-2.52a1.75,1.75,0,0,0,1.4-1.55l2.22-18.58a1.76,1.76,0,0,0-1.65-2H60.64A1.72,1.72,0,0,1,59,92.9L54.81,58.07A1.76,1.76,0,0,1,56.46,56Z"/></g></g></svg>