<svg xmlns="http://www.w3.org/2000/svg" viewBox="0 0 180 180"><defs><style>.cls-1{fill:#1c1b35;}.cls-2{fill:#fff;}</style></defs><g id="Capa_2" data-name="Capa 2"><g id="Capa_1-2" data-name="Capa 1"><circle class="cls-1" cx="90" cy="90" r="90"/><path class="cls-2" d="M84.37,145.63l-3.79-18.82a1.88,1.88,0,0,0-1.84-1.51H60.9a1.87,1.87,0,0,0-1.83,1.48l-4,18.87a1.87,1.87,0,0,1-1.83,1.48H37.6a1.87,1.87,0,0,1-1.83-2.27L59,37.84a1.87,1.87,0,0,1,1.84-1.48H83.14A1.87,1.87,0,0,1,85,37.83l23.63,107a1.87,1.87,0,0,1-1.83,2.28H86.21A1.88,1.88,0,0,1,84.37,145.63ZM65.73,101.12h8.06a1.88,1.88,0,0,0,1.84-2.24l-4-20.52a1.87,1.87,0,0,0-3.68,0l-4,20.52A1.88,1.88,0,0,0,65.73,101.12Z"/><path class="cls-2" d="M138.27,34.3V57.08a1.43,1.43,0,0,1-1.43,1.43H116.91a1.43,1.43,0,0,1-1.43-1.43V34.3a1.43,1.43,0,0,1,1.43-1.43h19.93A1.43,1.43,0,0,1,138.27,34.3Zm0,31.73V145.7a1.43,1.43,0,0,1-1.43,1.43H116.91a1.43,1.43,0,0,1-1.43-1.43V66a1.43,1.43,0,0,1,1.43-1.43h19.93A1.43,1.43,0,0,1,138.27,66Z"/></g></g></svg>