<svg xmlns="http://www.w3.org/2000/svg" viewBox="0 0 82.27 79.09"><defs><style>.cls-1{fill:#fff;}</style></defs><g id="Capa_2" data-name="Capa 2"><g id="Capa_1-2" data-name="Capa 1"><path class="cls-1" d="M25.74,0a2.64,2.64,0,0,1,2.64,2.64V52.86q0,11.87-.24,15.27a11.7,11.7,0,0,1-2.23,6.13A10.2,10.2,0,0,1,20.53,78a37.05,37.05,0,0,1-10.23,1H2.64A2.64,2.64,0,0,1,0,76.45V68.06a2.66,2.66,0,0,1,2.67-2.65h0a5.2,5.2,0,0,0,3.47-1.07A4.05,4.05,0,0,0,7.62,61.7a59.34,59.34,0,0,0,.2-6.06v-53A2.64,2.64,0,0,1,10.46,0Z"/><path class="cls-1" d="M36.35,3a3,3,0,0,1,3-3H50.91Q65.46,0,70.62,1.12A13.62,13.62,0,0,1,79,6.86q3.26,4.62,3.25,14.73,0,9.24-2.3,12.41a6.86,6.86,0,0,1-1.9,1.76,3,3,0,0,0-.2,4.93,6.59,6.59,0,0,1,1.27,1.18,12.25,12.25,0,0,1,2.62,4.66q.51,2.13.51,11.7V76.06a3,3,0,0,1-3,3h-13a3,3,0,0,1-3-3V52.81c0-4.23-.34-6.85-1-7.86a2.25,2.25,0,0,0-.72-.68,3,3,0,0,0-4.54,2.64V76.06a3,3,0,0,1-3,3H39.38a3,3,0,0,1-3-3Zm20.56,14V27.72a3,3,0,0,0,4,2.88,4.2,4.2,0,0,0,.85-.43q1.4-1,1.4-6.18V19.64c0-2.51-.45-4.15-1.35-4.94l-.2-.16A3,3,0,0,0,56.91,17.07Z"/></g></g></svg>