<svg xmlns="http://www.w3.org/2000/svg" viewBox="0 0 180 180"><defs><style>.cls-1{fill:#1c1b35;}.cls-2{fill:#fff;}</style></defs><g id="Capa_2" data-name="Capa 2"><g id="Capa_1-2" data-name="Capa 1"><path class="cls-1" d="M90,0a90,90,0,1,0,90,90A90,90,0,0,0,90,0Z"/><path class="cls-2" d="M124.32,39H55.68A16.7,16.7,0,0,0,39,55.68v68.64A16.7,16.7,0,0,0,55.68,141h68.64A16.7,16.7,0,0,0,141,124.32V55.68A16.7,16.7,0,0,0,124.32,39ZM136,124.32A11.69,11.69,0,0,1,124.32,136H55.68A11.69,11.69,0,0,1,44,124.32V55.68A11.69,11.69,0,0,1,55.68,44h68.64A11.69,11.69,0,0,1,136,55.68Z"/><path class="cls-2" d="M90,57a33,33,0,1,0,33,33A33,33,0,0,0,90,57Zm0,61a28,28,0,1,1,28-28A28,28,0,0,1,90,118Z"/><circle class="cls-2" cx="122.5" cy="55.5" r="5.5"/></g></g></svg>