<svg xmlns="http://www.w3.org/2000/svg" viewBox="0 0 180 180"><defs><style>.cls-1{fill:#1c1b35;}.cls-2{fill:#fff;}</style></defs><g id="Capa_2" data-name="Capa 2"><g id="Capa_1-2" data-name="Capa 1"><circle class="cls-1" cx="90" cy="90" r="90"/><path class="cls-2" d="M90,158.5a4.25,4.25,0,0,1-.8-.07h0l-35.72-6.31a4.84,4.84,0,0,1-3.94-4.26L36.35,39.06a5,5,0,0,1,1.22-4,4.72,4.72,0,0,1,3.53-1.6h97.8a4.72,4.72,0,0,1,3.53,1.6,5,5,0,0,1,1.22,4l-13.18,108.8a4.84,4.84,0,0,1-3.94,4.26l-35.72,6.31A4.43,4.43,0,0,1,90,158.5Zm.06-5Zm-35.57-6.27L90,153.5l35.51-6.27L138.68,38.5H41.33Z"/><path class="cls-2" d="M74.91,61h8.32a1.67,1.67,0,0,1,1.67,1.67v66.71a1.66,1.66,0,0,1-2,1.63l-23.63-4.3A1.68,1.68,0,0,1,58,125.21l-.47-4.6a1.66,1.66,0,0,1,2-1.8l11.92,2.37a1.65,1.65,0,0,0,2-1.63l-.12-56.91A1.66,1.66,0,0,1,74.91,61Z"/><path class="cls-2" d="M120.85,61H92.42a1.66,1.66,0,0,0-1.66,1.66l0,33.72A1.67,1.67,0,0,0,92.56,98l14.84-1.62a1.66,1.66,0,0,1,1.83,1.85l-2.46,20.52a1.67,1.67,0,0,1-1.42,1.45L93,121.94a1.66,1.66,0,0,0-1.43,1.61l-.12,5.78A1.67,1.67,0,0,0,93.38,131l20.06-3.45a1.64,1.64,0,0,0,1.37-1.43l5-41.1a1.67,1.67,0,0,0-1.71-1.86l-14.18.47a1.66,1.66,0,0,1-1.72-1.73l.38-9.5a1.67,1.67,0,0,1,1.54-1.59l16.42-1.27A1.64,1.64,0,0,0,122,68l.48-5.25A1.67,1.67,0,0,0,120.85,61Z"/></g></g></svg>