<svg xmlns="http://www.w3.org/2000/svg" viewBox="0 0 180 180"><defs><style>.cls-1{fill:#1c1b35;}.cls-2{fill:#fff;}</style></defs><g id="Capa_2" data-name="Capa 2"><g id="Capa_1-2" data-name="Capa 1"><circle class="cls-1" cx="90" cy="90" r="90"/><path class="cls-2" d="M67.64,36.7V57a2.26,2.26,0,0,1-2.26,2.26H46.89A2.26,2.26,0,0,1,44.64,57V36.7a2.25,2.25,0,0,1,2.25-2.25H65.38A2.26,2.26,0,0,1,67.64,36.7Zm0,30.7v75.34A2.26,2.26,0,0,1,65.38,145H46.89a2.26,2.26,0,0,1-2.25-2.26V67.4a2.25,2.25,0,0,1,2.25-2.25H65.38A2.26,2.26,0,0,1,67.64,67.4Z"/><path class="cls-2" d="M135.48,145h-20a1.52,1.52,0,0,1-1.52-1.52V94.75c0-4.14-.48-6.78-1.42-7.93A4.39,4.39,0,0,0,109,85.09q-6.29,0-6.29,11.94v46.45a1.52,1.52,0,0,1-1.52,1.52h-20a1.52,1.52,0,0,1-1.52-1.52V66.67a1.52,1.52,0,0,1,1.52-1.52H99.56a1.52,1.52,0,0,1,1.52,1.52V70a1.52,1.52,0,0,0,2.8.82A16,16,0,0,1,118,63.5a17.36,17.36,0,0,1,10.81,3.34,18.38,18.38,0,0,1,6.32,8.63Q137,80.78,137,93.88v49.6A1.52,1.52,0,0,1,135.48,145Z"/></g></g></svg>