<svg xmlns="http://www.w3.org/2000/svg" viewBox="0 0 180 180"><defs><style>.cls-1{fill:#1c1b35;}.cls-2{fill:#fff;}</style></defs><g id="Capa_2" data-name="Capa 2"><g id="Capa_1-2" data-name="Capa 1"><circle class="cls-1" cx="90" cy="90" r="90"/><path class="cls-2" d="M109.24,43.82C102.38,35.38,93.57,28.25,90,28.25c-4.31,0-12.86,6.7-19.89,15.59C64.84,50.51,56,64.18,56,80.75c0,25.8,23.24,47.55,31.71,51.75v16.75a2.5,2.5,0,0,0,5,0v-17c4-2.32,10.68-8.27,15.89-14.5,7-8.4,15.4-21.64,15.4-37C124,65.22,116,52.1,109.24,43.82ZM89.92,128.13C85.47,126,61,105.56,61,80.75c0-25.89,24.2-47.08,28.91-47.49C94.06,34.3,119,55.09,119,80.75,119,105.05,94.64,125.67,89.92,128.13Z"/></g></g></svg>