<svg xmlns="http://www.w3.org/2000/svg" viewBox="0 0 180 180"><defs><style>.cls-1{fill:#1c1b35;}.cls-2{fill:#fff;}</style></defs><g id="Capa_2" data-name="Capa 2"><g id="Capa_1-2" data-name="Capa 1"><circle class="cls-1" cx="90" cy="90" r="90"/><path class="cls-2" d="M90,152.54a6.86,6.86,0,0,1-3.45-.92L38.36,123.8a6.92,6.92,0,0,1-3.45-6V62.17a6.92,6.92,0,0,1,3.45-6L86.55,28.38a6.91,6.91,0,0,1,6.9,0L141.64,56.2a6.92,6.92,0,0,1,3.45,6v55.66a6.92,6.92,0,0,1-3.45,6h0L93.45,151.62A6.86,6.86,0,0,1,90,152.54ZM90,32.45a1.89,1.89,0,0,0-1,.26L40.86,60.53a1.9,1.9,0,0,0-1,1.64v55.66a1.9,1.9,0,0,0,1,1.64l48.19,27.82a1.9,1.9,0,0,0,1.9,0l48.19-27.82a1.9,1.9,0,0,0,1-1.64V62.17a1.9,1.9,0,0,0-1-1.64L91,32.71A1.89,1.89,0,0,0,90,32.45Z"/><path class="cls-2" d="M80.72,63.87a1.54,1.54,0,0,1,1.55,1.54V96.8a53,53,0,0,1-1,11.54,10.55,10.55,0,0,1-11.23,8.6,22,22,0,0,1-6.47-.91,1.52,1.52,0,0,1-1.06-1.47v-9.24a1.54,1.54,0,0,1,1.88-1.51,10,10,0,0,0,2.53.34,3.76,3.76,0,0,0,3.44-1.59q1-1.59,1-5.76V65.41A1.54,1.54,0,0,1,73,63.87Z"/><path class="cls-2" d="M85.61,100.73l8.2-2.11a1.18,1.18,0,0,1,1.42.8q1.55,5.24,6.5,5.23c2.84,0,4.25-1.08,4.25-3.22a3.42,3.42,0,0,0-1-2.62,8.65,8.65,0,0,0-3.51-1.67q-9.64-2.62-12.39-6.88a18,18,0,0,1-2.74-10A19,19,0,0,1,90.3,68q3.93-4.9,11.33-4.91,10.75,0,14.51,11.81a1.2,1.2,0,0,1-.67,1.44l-7.18,3.09a1.17,1.17,0,0,1-1.56-.66c-1.06-2.72-2.9-4.07-5.51-4.07q-3.68,0-3.68,3.25a3,3,0,0,0,.83,2.26,8.39,8.39,0,0,0,3.23,1.53A52.75,52.75,0,0,1,111,85.22a11.63,11.63,0,0,1,4.62,5.22,19.19,19.19,0,0,1,1.86,8.72q0,7.94-4.52,12.85a15.31,15.31,0,0,1-11.86,4.93q-12.93,0-16.32-14.81A1.18,1.18,0,0,1,85.61,100.73Z"/></g></g></svg>