<svg xmlns="http://www.w3.org/2000/svg" viewBox="0 0 180 180"><defs><style>.cls-1{fill:#1c1b35;}.cls-2{fill:#fff;}</style></defs><g id="Capa_2" data-name="Capa 2"><g id="Capa_1-2" data-name="Capa 1"><circle class="cls-1" cx="90" cy="90" r="90"/><path class="cls-2" d="M59.74,107.16v34a3,3,0,0,1-3,3H44.33a3,3,0,0,1-3-3v-104a3,3,0,0,1,3-3H66.58q9.44,0,14.35,4t7.79,12.33A56.53,56.53,0,0,1,91.6,69.13q0,15.72-5.89,25.38T70,104.18H62.72A3,3,0,0,0,59.74,107.16Zm-.26-29.57a3,3,0,0,0,3,3h3.08q8,0,8-10.95,0-10.32-7.4-10.32H62.46a3,3,0,0,0-3,3Z"/><path class="cls-2" d="M95.07,120.63l11-2.8a1.33,1.33,0,0,1,1.63,1q1.59,7.49,9,7.49c4.48,0,6.71-1.61,6.71-4.84a4.18,4.18,0,0,0-1.29-3.26q-1.31-1.17-6.15-2.38Q102.6,112.4,99.26,105a39.4,39.4,0,0,1-3.33-16.4q0-12.57,5.63-20.34t14.76-7.78q15.59,0,20.18,20.35a1.34,1.34,0,0,1-.86,1.56L125,86.15a1.34,1.34,0,0,1-1.71-.85q-2-5.94-7.28-5.93a5.52,5.52,0,0,0-4.14,1.4,4.1,4.1,0,0,0-1.36,2.78c0,2.69,1.39,4.32,4.16,4.91Q125.5,90.68,129.35,93t6.58,8.54a37.15,37.15,0,0,1,2.73,15q0,13.46-6,21.36T116,145.84q-17.43,0-21.89-23.66A1.33,1.33,0,0,1,95.07,120.63Z"/></g></g></svg>