<svg xmlns="http://www.w3.org/2000/svg" viewBox="0 0 180 180"><defs><style>.cls-1{fill:#1c1b35;}.cls-2{fill:#fff;}</style></defs><g id="Capa_2" data-name="Capa 2"><g id="Capa_1-2" data-name="Capa 1"><circle class="cls-1" cx="90" cy="90" r="90"/><path class="cls-2" d="M65.38,107.32v35.39A2.22,2.22,0,0,1,63.24,145H48.64a2.22,2.22,0,0,1-2.14-2.29V37.29A2.22,2.22,0,0,1,48.64,35H72.4q9.69,0,14.73,4t8,12.33a55.23,55.23,0,0,1,3,18.62q0,15.7-6,25.38T75.91,105H67.53A2.22,2.22,0,0,0,65.38,107.32Zm-.26-28.19a2.22,2.22,0,0,0,2.14,2.29h4.08q8.22,0,8.22-11,0-10.32-7.6-10.32h-4.7a2.22,2.22,0,0,0-2.14,2.29Z"/><path class="cls-2" d="M119.23,145H106.54a2.22,2.22,0,0,1-2.14-2.29V65.33A2.22,2.22,0,0,1,106.54,63H117a2.22,2.22,0,0,1,2.15,2.29h0a2.12,2.12,0,0,0,3.95,1.22q3-5,7.82-5l.6,0a2.24,2.24,0,0,1,2,2.28V87.45a2.2,2.2,0,0,1-2.45,2.26,5.48,5.48,0,0,0-.88-.07q-8.8,0-8.8,17.81v35.26A2.22,2.22,0,0,1,119.23,145Z"/></g></g></svg>