<svg xmlns="http://www.w3.org/2000/svg" viewBox="0 0 180 180"><defs><style>.cls-1{fill:#1c1b35;}.cls-2{fill:#fff;}</style></defs><g id="Capa_2" data-name="Capa 2"><g id="Capa_1-2" data-name="Capa 1"><circle class="cls-1" cx="90" cy="90" r="90"/><path class="cls-2" d="M52.86,125.12H47.34c-9.63,0-17.47-9.68-17.47-21.58V84c0-10.55,7-19.13,15.55-19.13H90.07V62.23H57.48a4.73,4.73,0,0,1-4.73-4.73V53.4c0-13.95,9.15-25.31,20.4-25.31h28.68c9.54,0,17.31,9.59,17.31,21.38v18.8c0,11-7.29,20-16.26,20H66.54c-4.85,0-8.79,5.33-8.79,11.89v20A4.9,4.9,0,0,1,52.86,125.12ZM45.42,69.9c-5.81,0-10.55,6.34-10.55,14.13v19.51c0,9.14,5.6,16.58,12.47,16.58h5.41V100.2c0-9.32,6.19-16.89,13.79-16.89h36.34c6.21,0,11.26-6.75,11.26-15V49.47c0-9-5.52-16.38-12.31-16.38H73.15c-8.49,0-15.4,9.11-15.4,20.31v3.83H90.39a4.69,4.69,0,0,1,4.68,4.68v3.31a4.69,4.69,0,0,1-4.68,4.68Z"/><path class="cls-2" d="M106.85,151.91H78.17c-9.54,0-17.31-9.59-17.31-21.38v-18.8c0-11,7.29-20,16.26-20h36.34c4.85,0,8.79-5.33,8.79-11.89v-20a4.9,4.9,0,0,1,4.89-4.89h5.52c9.63,0,17.47,9.68,17.47,21.58V96c0,10.55-7,19.13-15.55,19.13H89.93v2.67h32.59a4.73,4.73,0,0,1,4.73,4.73v4.1C127.25,140.55,118.1,151.91,106.85,151.91ZM77.12,96.69c-6.21,0-11.26,6.75-11.26,15v18.8c0,9,5.52,16.38,12.31,16.38h28.68c8.49,0,15.4-9.11,15.4-20.31v-3.83H89.61a4.69,4.69,0,0,1-4.68-4.68v-3.31a4.69,4.69,0,0,1,4.68-4.68h45c5.81,0,10.55-6.34,10.55-14.13V76.46c0-9.14-5.6-16.58-12.47-16.58h-5.41V79.8c0,9.32-6.19,16.89-13.79,16.89Z"/><ellipse class="cls-2" cx="74.73" cy="45.93" rx="5.84" ry="6.13"/><ellipse class="cls-2" cx="102.49" cy="133.12" rx="5.84" ry="6.13"/></g></g></svg>