<svg xmlns="http://www.w3.org/2000/svg" viewBox="0 0 180 180"><defs><style>.cls-1{fill:#1c1b35;}.cls-2{fill:#fff;}</style></defs><g id="Capa_2" data-name="Capa 2"><g id="Capa_1-2" data-name="Capa 1"><circle class="cls-1" cx="90" cy="90" r="90"/><path class="cls-2" d="M161,90c0-10.05-15-17.13-34.74-20.94,6.59-19,7.94-35.53-.76-40.55S103.19,32.91,90,48.14C76.81,32.91,63.2,23.5,54.5,28.52S47.15,50,53.74,69.07C34,72.88,19,80,19,90s15,17.12,34.72,20.93a117.66,117.66,0,0,0-3.66,12.81c-3.22,14.61-1.69,24.21,4.44,27.74a10.29,10.29,0,0,0,5.23,1.35c5.64,0,12.78-3.84,21-11.37A115,115,0,0,0,90,131.9a115,115,0,0,0,9.25,9.57c8.24,7.53,15.38,11.37,21,11.37a10.29,10.29,0,0,0,5.23-1.35c6.13-3.53,7.66-13.13,4.44-27.74a117.66,117.66,0,0,0-3.66-12.81C146.05,107.13,161,100.05,161,90ZM120.21,32.17a5.47,5.47,0,0,1,2.79.68c5.23,3,4.85,16.65-1.7,35.35-5.63-.9-11.57-1.55-17.59-1.94-3.35-5-6.88-9.84-10.47-14.27C104.2,39.24,114.23,32.17,120.21,32.17ZM106.62,99.6c-1.85,3.21-3.76,6.32-5.7,9.32-3.53.18-7.17.28-10.92.28s-7.39-.1-10.92-.28c-1.94-3-3.85-6.11-5.7-9.32S69.77,93.15,68.16,90c1.63-3.19,3.37-6.4,5.22-9.6s3.79-6.36,5.7-9.32c3.52-.18,7.17-.28,10.92-.28s7.4.1,10.92.28q2.88,4.44,5.7,9.32c1.85,3.2,3.59,6.41,5.22,9.6C110.23,93.15,108.5,96.35,106.62,99.6Zm7.95-4c1.85,3.9,3.51,7.75,5,11.51q-5.87.9-12.44,1.45,2-3.15,3.85-6.42C112.19,100,113.4,97.76,114.57,95.56Zm-17.09,18.5c-2.46,3.55-5,6.91-7.48,10-2.52-3.14-5-6.5-7.48-10q3.75.14,7.48.14T97.48,114.06ZM72.9,108.52q-6.57-.54-12.44-1.45c1.46-3.76,3.12-7.61,5-11.51,1.17,2.2,2.38,4.39,3.62,6.54S71.59,106.42,72.9,108.52ZM65.42,84.45c-1.88-4-3.53-7.82-5-11.5,3.91-.6,8.08-1.09,12.46-1.45-1.32,2.12-2.62,4.26-3.86,6.41S66.58,82.27,65.42,84.45ZM82.52,66c2.5-3.61,5-7,7.48-10.06Q93.72,60.51,97.49,66q-3.75-.14-7.49-.14C87.51,65.81,85,65.86,82.52,66Zm28.43,12c-1.24-2.15-2.54-4.29-3.86-6.41,4.38.36,8.55.85,12.46,1.45-1.44,3.68-3.09,7.53-5,11.5Q112.84,81.18,111,77.91ZM57,32.85C62.23,29.83,73.85,37,86.76,52c-3.59,4.43-7.12,9.24-10.47,14.26-6,.39-12,1-17.59,1.94C52.15,49.5,51.77,35.87,57,32.85ZM24,90c0-6,12-12.53,31.46-16.2,2,5.31,4.44,10.77,7.11,16.17-2.73,5.52-5.12,11-7.13,16.22C36,102.53,24,96,24,90Zm53.38,47.77c-8.88,8.12-16.5,11.63-20.38,9.38s-4.65-10.59-2.06-22.34a113.48,113.48,0,0,1,3.76-13c5.63.89,11.55,1.54,17.57,1.93,3.4,5.12,6.92,9.91,10.48,14.28A114.51,114.51,0,0,1,77.38,137.78Zm47.68-13c2.59,11.75,1.82,20.1-2.06,22.34s-11.5-1.27-20.38-9.38A114.51,114.51,0,0,1,93.25,128c3.56-4.37,7.08-9.16,10.48-14.28,6-.39,11.94-1,17.57-1.93A113.48,113.48,0,0,1,125.06,124.82Zm-.5-18.62c-2-5.26-4.4-10.7-7.13-16.22,2.67-5.4,5.07-10.86,7.11-16.17C144,77.48,156,84,156,90S144,102.53,124.56,106.2Z"/><circle class="cls-2" cx="90" cy="90.01" r="10.85"/></g></g></svg>