<svg xmlns="http://www.w3.org/2000/svg" viewBox="0 0 180 180"><defs><style>.cls-1{fill:#1c1b35;}.cls-2{fill:#fff;}</style></defs><g id="Capa_2" data-name="Capa 2"><g id="Capa_1-2" data-name="Capa 1"><circle class="cls-1" cx="90" cy="90" r="90"/><path class="cls-2" d="M135.63,101.43c-2,.85-1.89.86-2.93-1.31a21.06,21.06,0,0,1-2.1-8.86A23.25,23.25,0,0,1,132,83.54c.66-2-.19-2.67-1.68-2.85a13.92,13.92,0,0,0-3.29,0c-3.22.38-3.14.69-4.2,5.21a31.26,31.26,0,0,1-1.71,5.25c-1.7,3.94-3.58,7.76-5.52,11.54a11.51,11.51,0,0,1-1.23,2.2,18.28,18.28,0,0,1-2.26-8.62,24.61,24.61,0,0,1,1.57-8.62,1.43,1.43,0,0,0-.65-1.92,2.64,2.64,0,0,0-1-.37,13.47,13.47,0,0,0-5.39.42,2,2,0,0,0-1.49,1.79,31.14,31.14,0,0,1-1.61,5.82c-2,5.18-4,10.38-6,15.56-1.75,4.51-3.47,9-5.54,13.36-.15.3-.27.83-.64.73s-.24-.63-.26-1c-.2-4.31,1.67-8.28,1.68-12.49a11.46,11.46,0,0,1,1.44-5.26c1-1.8.57-2.88-.49-3.58a2.66,2.66,0,0,0-3.54.26,28.16,28.16,0,0,0,.19-4.32c-.16-3.75-2-5.9-5.12-5.6a6.06,6.06,0,0,0-2,.59,23.09,23.09,0,0,0-9,8.18,3.18,3.18,0,0,1-.9,1q-6.26,3.9-12.5,7.83a.7.7,0,0,1-1.08-.19,61.36,61.36,0,0,0-6.93-6.85c-3.37-3-6.85-5.87-9.76-9.51A17.78,17.78,0,0,1,40.8,71.86,37.12,37.12,0,0,1,50.19,60,88.67,88.67,0,0,1,69.44,47.14c7.66-3.84,15.6-6.32,24.07-6a19.1,19.1,0,0,1,9.59,2.7A8.16,8.16,0,0,1,107,50a16.75,16.75,0,0,1-1.51,9.25A33.91,33.91,0,0,1,92.71,73.86a39.65,39.65,0,0,1-17.22,6.33,19.12,19.12,0,0,1-6-.13,12.41,12.41,0,0,1-8.16-4.76c-.26-.35-.58-.59-1-.34s-.41.7-.37,1.14a4.55,4.55,0,0,0,.19.89,10.5,10.5,0,0,0,3,4.45c3.4,3.17,7.42,4.1,11.66,4.19A42.19,42.19,0,0,0,87,84a37,37,0,0,0,22.29-16.37A30.7,30.7,0,0,0,114.56,50a16.63,16.63,0,0,0-4-10.9,21.59,21.59,0,0,0-11.33-6.44A36.74,36.74,0,0,0,85,32a52.73,52.73,0,0,0-12.22,3.11A103.11,103.11,0,0,0,55.21,44,76.81,76.81,0,0,0,39.29,57.13c-4.2,4.65-7.82,9.79-9.86,16.16a16.82,16.82,0,0,0-.91,8.48,25.28,25.28,0,0,0,4.53,10A62.26,62.26,0,0,0,44.4,103.23c3.3,2.72,6.76,5.19,9.93,8.11.9.83.89.83-.17,1.46-1.23.74-2.48,1.45-3.7,2.24-4.89,3.17-9.63,6.61-13.49,11.39a19,19,0,0,0-2.91,4.93,6.06,6.06,0,0,0,.58,5.42,73.37,73.37,0,0,0,7.3,9.63,6.08,6.08,0,0,0,6.31,1.72c5.32-1.63,9.56-5.54,12.86-11.3a27.31,27.31,0,0,0,3.25-11.42,30.5,30.5,0,0,0-1-10.57c-.16-.61-.76-1.22-.53-1.75s.89-.74,1.37-1.06l6-3.94a2.3,2.3,0,0,1-.15,1.11c-1.17,4.88-2,9.8-1.09,14.88a22.45,22.45,0,0,0,3.2,8.75,4.52,4.52,0,0,0,7.41-.07,42.71,42.71,0,0,0,3.63-7.59c.58-1.43,1.12-2.89,1.68-4.34-.11,1.74-.1,3.44-.05,5.14a11.24,11.24,0,0,0,1.05,4.8,2.86,2.86,0,0,0,4.22,1.34,10.29,10.29,0,0,0,3.72-4.43A221.91,221.91,0,0,0,104.15,104c.62-1.74,1.26-3.48,2-5.41l.25,1.41A40.61,40.61,0,0,0,109.86,111a1.72,1.72,0,0,1-.13,2c-1.55,2.42-3.25,4.69-4.92,7a58.56,58.56,0,0,0-4.1,5.91c-1.06,1.91-.45,3.87,1.32,4.3a6.35,6.35,0,0,0,1.68.17,16.11,16.11,0,0,0,8.63-2.84A11.72,11.72,0,0,0,118,116.85a18.88,18.88,0,0,0-1.35-6.4,1.22,1.22,0,0,1,.07-1.2,120.78,120.78,0,0,0,6.7-12.76,11.83,11.83,0,0,1,1.19-2.39c.08.31.14.5.17.7a38.36,38.36,0,0,0,3.13,10.46,1.38,1.38,0,0,1-.39,1.94,27.37,27.37,0,0,0-5.31,7.23,15.05,15.05,0,0,0-1.83,6.95c0,2.79,1.87,4.44,4.25,3.78a18,18,0,0,0,6.85-3.57c4.49-3.77,5.81-7.74,4.4-13.3-.55-2.18-.54-2.14,1.37-2.81a24.59,24.59,0,0,1,12.7-.71c.48.09,1,.2,1.43.32.13-.93.25-1.86.35-2.8a2.77,2.77,0,0,0-2.37-3A24.86,24.86,0,0,0,135.63,101.43ZM47.25,140.52a8,8,0,0,1-3.76.58c-1.61-.14-2.62-1.44-2.73-3.39a13.58,13.58,0,0,1,1.33-6.25c1.56-3.59,4.18-6,6.86-8.41a77.66,77.66,0,0,1,8.22-6.24c.86-.58.87-.58,1.07.59a20.36,20.36,0,0,1,.4,4.37C58.86,130,53.67,137.91,47.25,140.52ZM86.18,99.26a55.92,55.92,0,0,1-2.48,10c-1.43,4.43-2.82,8.89-4.61,13.15a10.79,10.79,0,0,1-1.51,2.75c-.63.76-1.19.67-1.62-.25-.85-1.81-.75-3.82-.88-5.28a33.26,33.26,0,0,1,5.71-18.67,7.28,7.28,0,0,1,3.91-3.2C85.84,97.4,86.36,97.92,86.18,99.26Zm24.72,21.66a12.72,12.72,0,0,1-5.09,5.37c-.23.13-.52.36-.73.06s.12-.48.27-.67c2.12-2.65,4.22-5.33,6.11-8.22,0,0,.1,0,.26-.13A8,8,0,0,1,110.9,120.92Zm14.67-.11c-.31.17-.68.49-1,.22s-.2-.83-.1-1.24a23.16,23.16,0,0,1,2-5.29,19.6,19.6,0,0,1,2.71-3.75c.42-.46.6-.4.74.26a9.79,9.79,0,0,1,.17,2A8.24,8.24,0,0,1,125.57,120.81Z"/></g></g></svg>