<svg xmlns="http://www.w3.org/2000/svg" viewBox="0 0 180 180"><defs><style>.cls-1{fill:#1c1b35;}.cls-2{fill:#fff;}</style></defs><g id="Capa_2" data-name="Capa 2"><g id="Capa_1-2" data-name="Capa 1"><circle class="cls-1" cx="90" cy="90" r="90"/><path class="cls-2" d="M93,25.5h0A63.57,63.57,0,0,0,29.5,89a62.86,62.86,0,0,0,11.34,36.17L32.07,151.3l27-8.64A63.49,63.49,0,1,0,93,25.5Zm0,122a58.09,58.09,0,0,1-32.18-9.66l-1-.67L40,143.53l6.44-19.2-.76-1A57.88,57.88,0,0,1,34.5,89,58.56,58.56,0,0,1,93,30.5h0a58.5,58.5,0,0,1,0,117Z"/><path class="cls-2" d="M126.21,101.11c-.29-.13-.6-.28-.95-.46-1-.5-9.88-4.91-11.65-5.52a5.53,5.53,0,0,0-6.86,2.08l-.65.92a54.69,54.69,0,0,1-3.63,4.78,1.39,1.39,0,0,1-1.42.07l-.55-.22A39.29,39.29,0,0,1,88.25,95.1a49,49,0,0,1-8.84-11c0-.09-.08-.16-.1-.2a5.72,5.72,0,0,1,.49-.62l.08-.1c.44-.54.87-1,1.33-1.49s.74-.78,1.11-1.21l.15-.17a11.22,11.22,0,0,0,2-2.93,5.67,5.67,0,0,0-.21-5.19c-.25-.53-2.1-5-3.45-8.3l-1.66-4c-1.45-3.47-3.06-4.16-5.69-4.28h-.17c-.56,0-1.19-.06-1.87-.06a10.52,10.52,0,0,0-7.55,2.76l-.15.15a20.55,20.55,0,0,0-6.39,15.46c0,7.64,4.51,14.93,7.2,18.59l.1.14.29.42c8.39,12.14,18.77,21.22,29.24,25.56,9.28,3.84,14.25,4.87,17.69,4.87a17.63,17.63,0,0,0,3.81-.43c5-1.08,11.28-4.82,13-9.61h0c1.19-3.38,1.88-8,.8-9.92A6.81,6.81,0,0,0,126.21,101.11Z"/></g></g></svg>