<svg xmlns="http://www.w3.org/2000/svg" viewBox="0 0 180 180"><defs><style>.cls-1{fill:#1c1b35;}.cls-2{fill:#fff;}</style></defs><g id="Capa_2" data-name="Capa 2"><g id="Capa_1-2" data-name="Capa 1"><circle class="cls-1" cx="90" cy="90" r="90"/><path class="cls-2" d="M90,41h0a49,49,0,0,0-39.66,77.72l-6.11,18.2,18.84-6A48.49,48.49,0,0,0,90,139a49,49,0,0,0,0-98Z"/><path class="cls-1" d="M118.52,110.19c-1.18,3.34-5.87,6.11-9.61,6.92-2.56.54-5.91,1-17.16-3.69-14.4-6-23.68-20.6-24.4-21.55s-5.82-7.74-5.82-14.78a15.63,15.63,0,0,1,5-11.92,7.11,7.11,0,0,1,5-1.76c.61,0,1.15,0,1.64.06,1.44.06,2.17.14,3.11,2.42,1.19,2.84,4.07,9.88,4.41,10.6a2.91,2.91,0,0,1,.21,2.65,8.52,8.52,0,0,1-1.59,2.25c-.72.83-1.41,1.47-2.13,2.36s-1.41,1.61-.58,3a43.56,43.56,0,0,0,7.95,9.88,36.09,36.09,0,0,0,11.49,7.09,3.11,3.11,0,0,0,3.46-.55,60.52,60.52,0,0,0,3.83-5.07,2.73,2.73,0,0,1,3.51-1.06c1.33.46,8.33,3.92,9.77,4.63s2.38,1.07,2.73,1.68S119.71,106.85,118.52,110.19Z"/></g></g></svg>