<svg xmlns="http://www.w3.org/2000/svg" viewBox="0 0 180 180"><defs><style>.cls-1{fill:#1c1b35;}.cls-2{fill:#fff;}</style></defs><g id="Capa_2" data-name="Capa 2"><g id="Capa_1-2" data-name="Capa 1"><circle class="cls-1" cx="90" cy="90" r="90"/><path class="cls-2" d="M92.16,37.75,77.57,84a4.09,4.09,0,0,0,0,2.35L94.7,140.56c.47,1.48-.07,3.39-.94,3.39H76.71c-.39,0-.76-.42-1-1.09l-8.9-30.18c-.43-1.46-1.49-1.46-1.92,0l-9,30.19c-.2.68-.57,1.09-1,1.09H42.13c-.87,0-1.41-1.91-.94-3.38l16.33-52a4.21,4.21,0,0,0,0-2.36L42,37.77c-.48-1.48,0-3.4.93-3.4H60c.4,0,.77.42,1,1.1L68.2,60.6c.43,1.46,1.49,1.48,1.92,0l7.59-25.19c.2-.67.56-1.07,1-1.07H91.22C92.09,34.37,92.62,36.28,92.16,37.75Z"/><path class="cls-2" d="M137.07,144H125.79c-1.06,0-1.91-1.7-1.91-3.8v-7q-3.36,12.52-11.07,12.52-7.11,0-11.54-11t-4.42-32.08q0-19.69,4.46-31.26c2.83-7.35,7.32-11.66,12-11.52q5.94.18,9.82,9.23V38.17c0-2.1.85-3.8,1.91-3.8h12c1.06,0,1.91,1.7,1.91,3.8v102C139,142.25,138.13,144,137.07,144Zm-14-52.5q0-11-4.57-11c-2.12,0-3.52,2.32-4.18,7a124.67,124.67,0,0,0-1,17.1q0,19.83,5.09,19.83c1.3,0,2.39-1,3.29-3.13s1.36-5.27,1.36-9.55Z"/></g></g></svg>